<svg width="64" height="81" viewBox="0 0 64 81" fill="none" xmlns="http://www.w3.org/2000/svg">
<path fill-rule="evenodd" clip-rule="evenodd" d="M4 0C1.79086 0 0 1.79086 0 4V77C0 79.2091 1.79086 81 4 81H60C62.2091 81 64 79.2091 64 77V73.874C63.6804 73.9563 63.3453 74 63 74C60.7909 74 59 72.2091 59 70C59 67.7909 60.7909 66 63 66C63.3453 66 63.6804 66.0437 64 66.126V4C64 1.79086 62.2091 0 60 0H4ZM17 16C15.3431 16 14 17.3431 14 19C14 20.6569 15.3431 22 17 22H47C48.6569 22 50 20.6569 50 19C50 17.3431 48.6569 16 47 16H17ZM6 70C6 68.3431 7.34315 67 9 67H50C50.5523 67 51 67.4477 51 68V73C51 73.5523 50.5523 74 50 74H9C7.34315 74 6 72.6569 6 71V70Z" fill="#66FCF1"/>
</svg>
