<svg width="54" height="52" viewBox="0 0 54 52" fill="none" xmlns="http://www.w3.org/2000/svg">
<path d="M27.9081 2.74369L33.5089 14.8863C34.2372 16.4653 35.7337 17.5526 37.4605 17.7573L50.7396 19.3318C51.587 19.4322 51.9273 20.4796 51.3008 21.059L41.4832 30.138C40.2065 31.3186 39.635 33.0778 39.9738 34.7834L42.5799 47.899C42.7462 48.736 41.8553 49.3833 41.1107 48.9665L29.4422 42.435C27.9248 41.5857 26.0752 41.5857 24.5578 42.435L12.8893 48.9665C12.1447 49.3833 11.2538 48.736 11.4201 47.899L14.0262 34.7834C14.365 33.0778 13.7935 31.3186 12.5168 30.138L2.69921 21.059C2.07271 20.4796 2.41303 19.4322 3.26042 19.3318L16.5395 17.7573C18.2663 17.5526 19.7628 16.4653 20.4911 14.8863L26.0919 2.74369C26.4494 1.96882 27.5506 1.96881 27.9081 2.74369Z" fill="#66FCF1" stroke="#66FCF1" stroke-width="4"/>
</svg>
